<?xml version="1.0" encoding="UTF-8" standalone="no"?>
<!DOCTYPE svg PUBLIC "-//W3C//DTD SVG 1.1//EN"
 "http://www.w3.org/Graphics/SVG/1.1/DTD/svg11.dtd">
<!-- Generated by graphviz version 2.47.0 (20210316.0004)
 -->
<!-- Title: dependencies Pages: 1 -->
<svg width="6739pt" height="284pt"
 viewBox="0.00 0.00 6739.00 284.00" xmlns="http://www.w3.org/2000/svg" xmlns:xlink="http://www.w3.org/1999/xlink">
<g id="graph0" class="graph" transform="scale(1 1) rotate(0) translate(4 280)">
<title>dependencies</title>
<polygon fill="white" stroke="transparent" points="-4,4 -4,-280 6735,-280 6735,4 -4,4"/>
<text text-anchor="start" x="3344.51" y="-42.4" font-family="Times-12" font-weight="bold" font-size="14.00">Legend</text>
<polygon fill="#ffffb3" stroke="transparent" points="3131.5,-10 3131.5,-30 3151.5,-30 3151.5,-10 3131.5,-10"/>
<text text-anchor="start" x="3155.13" y="-15.4" font-family="Times-12" font-size="14.00"> &#160;Declarations</text>
<polygon fill="#8dd3c7" stroke="transparent" points="3244.5,-10 3244.5,-30 3264.5,-30 3264.5,-10 3244.5,-10"/>
<text text-anchor="start" x="3268.23" y="-15.4" font-family="Times-12" font-size="14.00"> &#160;Module</text>
<polygon fill="#80b1d3" stroke="transparent" points="3330.5,-10 3330.5,-30 3350.5,-30 3350.5,-10 3330.5,-10"/>
<text text-anchor="start" x="3354.28" y="-15.4" font-family="Times-12" font-size="14.00"> &#160;Bootstrap</text>
<polygon fill="#fdb462" stroke="transparent" points="3427.5,-10 3427.5,-30 3447.5,-30 3447.5,-10 3427.5,-10"/>
<text text-anchor="start" x="3451.17" y="-15.4" font-family="Times-12" font-size="14.00"> &#160;Providers</text>
<polygon fill="#fb8072" stroke="transparent" points="3523.5,-10 3523.5,-30 3543.5,-30 3543.5,-10 3523.5,-10"/>
<text text-anchor="start" x="3547.23" y="-15.4" font-family="Times-12" font-size="14.00"> &#160;Exports</text>
<g id="clust1" class="cluster">
<title>cluster_AppModule</title>
<polygon fill="none" stroke="black" stroke-dasharray="1,5" points="8,-70 8,-268 6723,-268 6723,-70 8,-70"/>
</g>
<g id="clust2" class="cluster">
<title>cluster_AppModule_declarations</title>
<polygon fill="none" stroke="black" points="168,-78 168,-130 6715,-130 6715,-78 168,-78"/>
</g>
<g id="clust36" class="cluster">
<title>cluster_AppModule_imports</title>
<polygon fill="none" stroke="black" points="16,-78 16,-130 160,-130 160,-78 16,-78"/>
</g>
<g id="clust38" class="cluster">
<title>cluster_AppModule_bootstrap</title>
<polygon fill="none" stroke="black" points="3216,-208 3216,-260 3340,-260 3340,-208 3216,-208"/>
</g>
<!-- AppComponent -->
<g id="node1" class="node">
<title>AppComponent</title>
<polygon fill="#ffffb3" stroke="black" points="6706.94,-122 6601.06,-122 6601.06,-86 6706.94,-86 6706.94,-122"/>
<text text-anchor="middle" x="6654" y="-99.8" font-family="Times,serif" font-size="14.00">AppComponent</text>
</g>
<!-- AppModule -->
<g id="node34" class="node">
<title>AppModule</title>
<polygon fill="#8dd3c7" stroke="black" points="3319.66,-187 3316.66,-191 3295.66,-191 3292.66,-187 3236.34,-187 3236.34,-151 3319.66,-151 3319.66,-187"/>
<text text-anchor="middle" x="3278" y="-164.8" font-family="Times,serif" font-size="14.00">AppModule</text>
</g>
<!-- AppComponent&#45;&gt;AppModule -->
<g id="edge1" class="edge">
<title>AppComponent&#45;&gt;AppModule</title>
<path fill="none" stroke="black" d="M6654,-122.38C6654,-146.28 6654,-185 6654,-185 6654,-185 3329.77,-185 3329.77,-185"/>
<polygon fill="black" stroke="black" points="3329.77,-181.5 3319.77,-185 3329.77,-188.5 3329.77,-181.5"/>
</g>
<!-- AreasDeIncumbenciaComponent -->
<g id="node2" class="node">
<title>AreasDeIncumbenciaComponent</title>
<polygon fill="#ffffb3" stroke="black" points="6583.1,-122 6380.9,-122 6380.9,-86 6583.1,-86 6583.1,-122"/>
<text text-anchor="middle" x="6482" y="-99.8" font-family="Times,serif" font-size="14.00">AreasDeIncumbenciaComponent</text>
</g>
<!-- AreasDeIncumbenciaComponent&#45;&gt;AppModule -->
<g id="edge2" class="edge">
<title>AreasDeIncumbenciaComponent&#45;&gt;AppModule</title>
<path fill="none" stroke="black" d="M6482,-122.32C6482,-145.66 6482,-183 6482,-183 6482,-183 3329.68,-183 3329.68,-183"/>
<polygon fill="black" stroke="black" points="3329.68,-179.5 3319.68,-183 3329.68,-186.5 3329.68,-179.5"/>
</g>
<!-- BotonEditarComponent -->
<g id="node3" class="node">
<title>BotonEditarComponent</title>
<polygon fill="#ffffb3" stroke="black" points="6362.77,-122 6213.23,-122 6213.23,-86 6362.77,-86 6362.77,-122"/>
<text text-anchor="middle" x="6288" y="-99.8" font-family="Times,serif" font-size="14.00">BotonEditarComponent</text>
</g>
<!-- BotonEditarComponent&#45;&gt;AppModule -->
<g id="edge3" class="edge">
<title>BotonEditarComponent&#45;&gt;AppModule</title>
<path fill="none" stroke="black" d="M6288,-122.25C6288,-145.02 6288,-181 6288,-181 6288,-181 3329.69,-181 3329.69,-181"/>
<polygon fill="black" stroke="black" points="3329.69,-177.5 3319.69,-181 3329.69,-184.5 3329.69,-177.5"/>
</g>
<!-- DatosDeContactoComponent -->
<g id="node4" class="node">
<title>DatosDeContactoComponent</title>
<polygon fill="#ffffb3" stroke="black" points="6195.36,-122 6014.64,-122 6014.64,-86 6195.36,-86 6195.36,-122"/>
<text text-anchor="middle" x="6105" y="-99.8" font-family="Times,serif" font-size="14.00">DatosDeContactoComponent</text>
</g>
<!-- DatosDeContactoComponent&#45;&gt;AppModule -->
<g id="edge4" class="edge">
<title>DatosDeContactoComponent&#45;&gt;AppModule</title>
<path fill="none" stroke="black" d="M6105,-122.16C6105,-144.35 6105,-179 6105,-179 6105,-179 3329.88,-179 3329.88,-179"/>
<polygon fill="black" stroke="black" points="3329.88,-175.5 3319.88,-179 3329.88,-182.5 3329.88,-175.5"/>
</g>
<!-- DatosDeCursoComponent -->
<g id="node5" class="node">
<title>DatosDeCursoComponent</title>
<polygon fill="#ffffb3" stroke="black" points="5996.75,-122 5833.25,-122 5833.25,-86 5996.75,-86 5996.75,-122"/>
<text text-anchor="middle" x="5915" y="-99.8" font-family="Times,serif" font-size="14.00">DatosDeCursoComponent</text>
</g>
<!-- DatosDeCursoComponent&#45;&gt;AppModule -->
<g id="edge5" class="edge">
<title>DatosDeCursoComponent&#45;&gt;AppModule</title>
<path fill="none" stroke="black" d="M5915,-122.04C5915,-143.66 5915,-177 5915,-177 5915,-177 3329.69,-177 3329.69,-177"/>
<polygon fill="black" stroke="black" points="3329.69,-173.5 3319.69,-177 3329.69,-180.5 3329.69,-173.5"/>
</g>
<!-- DatosDeIdiomaComponent -->
<g id="node6" class="node">
<title>DatosDeIdiomaComponent</title>
<polygon fill="#ffffb3" stroke="black" points="5814.97,-122 5645.03,-122 5645.03,-86 5814.97,-86 5814.97,-122"/>
<text text-anchor="middle" x="5730" y="-99.8" font-family="Times,serif" font-size="14.00">DatosDeIdiomaComponent</text>
</g>
<!-- DatosDeIdiomaComponent&#45;&gt;AppModule -->
<g id="edge6" class="edge">
<title>DatosDeIdiomaComponent&#45;&gt;AppModule</title>
<path fill="none" stroke="black" d="M5730,-122.28C5730,-143.32 5730,-175 5730,-175 5730,-175 3329.79,-175 3329.79,-175"/>
<polygon fill="black" stroke="black" points="3329.79,-171.5 3319.79,-175 3329.79,-178.5 3329.79,-171.5"/>
</g>
<!-- DatosDeNivelEducativoComponent -->
<g id="node7" class="node">
<title>DatosDeNivelEducativoComponent</title>
<polygon fill="#ffffb3" stroke="black" points="5627.18,-122 5408.82,-122 5408.82,-86 5627.18,-86 5627.18,-122"/>
<text text-anchor="middle" x="5518" y="-99.8" font-family="Times,serif" font-size="14.00">DatosDeNivelEducativoComponent</text>
</g>
<!-- DatosDeNivelEducativoComponent&#45;&gt;AppModule -->
<g id="edge7" class="edge">
<title>DatosDeNivelEducativoComponent&#45;&gt;AppModule</title>
<path fill="none" stroke="black" d="M5518,-122.13C5518,-142.57 5518,-173 5518,-173 5518,-173 3329.76,-173 3329.76,-173"/>
<polygon fill="black" stroke="black" points="3329.76,-169.5 3319.76,-173 3329.76,-176.5 3329.76,-169.5"/>
</g>
<!-- DatosExperienciaLaboralComponent -->
<g id="node8" class="node">
<title>DatosExperienciaLaboralComponent</title>
<polygon fill="#ffffb3" stroke="black" points="5391.37,-122 5166.63,-122 5166.63,-86 5391.37,-86 5391.37,-122"/>
<text text-anchor="middle" x="5279" y="-99.8" font-family="Times,serif" font-size="14.00">DatosExperienciaLaboralComponent</text>
</g>
<!-- DatosExperienciaLaboralComponent&#45;&gt;AppModule -->
<g id="edge8" class="edge">
<title>DatosExperienciaLaboralComponent&#45;&gt;AppModule</title>
<path fill="none" stroke="black" d="M5279,-122.31C5279,-142.15 5279,-171 5279,-171 5279,-171 3329.79,-171 3329.79,-171"/>
<polygon fill="black" stroke="black" points="3329.79,-167.5 3319.79,-171 3329.79,-174.5 3329.79,-167.5"/>
</g>
<!-- DatosInformaticaComponent -->
<g id="node9" class="node">
<title>DatosInformaticaComponent</title>
<polygon fill="#ffffb3" stroke="black" points="5148.79,-122 4969.21,-122 4969.21,-86 5148.79,-86 5148.79,-122"/>
<text text-anchor="middle" x="5059" y="-99.8" font-family="Times,serif" font-size="14.00">DatosInformaticaComponent</text>
</g>
<!-- DatosInformaticaComponent&#45;&gt;AppModule -->
<g id="edge9" class="edge">
<title>DatosInformaticaComponent&#45;&gt;AppModule</title>
<path fill="none" stroke="black" d="M5059,-122.17C5059,-141.09 5059,-168 5059,-168 5059,-168 3329.83,-168 3329.83,-168"/>
<polygon fill="black" stroke="black" points="3329.83,-164.5 3319.83,-168 3329.83,-171.5 3329.83,-164.5"/>
</g>
<!-- DatosPersonalesComponent -->
<g id="node10" class="node">
<title>DatosPersonalesComponent</title>
<polygon fill="#ffffb3" stroke="black" points="4950.86,-122 4777.14,-122 4777.14,-86 4950.86,-86 4950.86,-122"/>
<text text-anchor="middle" x="4864" y="-99.8" font-family="Times,serif" font-size="14.00">DatosPersonalesComponent</text>
</g>
<!-- DatosPersonalesComponent&#45;&gt;AppModule -->
<g id="edge10" class="edge">
<title>DatosPersonalesComponent&#45;&gt;AppModule</title>
<path fill="none" stroke="black" d="M4864,-122.27C4864,-140.56 4864,-166 4864,-166 4864,-166 3330.01,-166 3330.01,-166"/>
<polygon fill="black" stroke="black" points="3330.01,-162.5 3320.01,-166 3330.01,-169.5 3330.01,-162.5"/>
</g>
<!-- DescargarCvAutogeneradoComponent -->
<g id="node11" class="node">
<title>DescargarCvAutogeneradoComponent</title>
<polygon fill="#ffffb3" stroke="black" points="4758.7,-122 4525.3,-122 4525.3,-86 4758.7,-86 4758.7,-122"/>
<text text-anchor="middle" x="4642" y="-99.8" font-family="Times,serif" font-size="14.00">DescargarCvAutogeneradoComponent</text>
</g>
<!-- DescargarCvAutogeneradoComponent&#45;&gt;AppModule -->
<g id="edge11" class="edge">
<title>DescargarCvAutogeneradoComponent&#45;&gt;AppModule</title>
<path fill="none" stroke="black" d="M4642,-122C4642,-139.68 4642,-164 4642,-164 4642,-164 3329.94,-164 3329.94,-164"/>
<polygon fill="black" stroke="black" points="3329.94,-160.5 3319.94,-164 3329.94,-167.5 3329.94,-160.5"/>
</g>
<!-- EditarFormComponent -->
<g id="node12" class="node">
<title>EditarFormComponent</title>
<polygon fill="#ffffb3" stroke="black" points="4506.88,-122 4361.12,-122 4361.12,-86 4506.88,-86 4506.88,-122"/>
<text text-anchor="middle" x="4434" y="-99.8" font-family="Times,serif" font-size="14.00">EditarFormComponent</text>
</g>
<!-- EditarFormComponent&#45;&gt;AppModule -->
<g id="edge12" class="edge">
<title>EditarFormComponent&#45;&gt;AppModule</title>
<path fill="none" stroke="black" d="M4434,-122.03C4434,-139.06 4434,-162 4434,-162 4434,-162 3329.83,-162 3329.83,-162"/>
<polygon fill="black" stroke="black" points="3329.83,-158.5 3319.83,-162 3329.83,-165.5 3329.83,-158.5"/>
</g>
<!-- FooterComponent -->
<g id="node13" class="node">
<title>FooterComponent</title>
<polygon fill="#ffffb3" stroke="black" points="4342.88,-122 4225.12,-122 4225.12,-86 4342.88,-86 4342.88,-122"/>
<text text-anchor="middle" x="4284" y="-99.8" font-family="Times,serif" font-size="14.00">FooterComponent</text>
</g>
<!-- FooterComponent&#45;&gt;AppModule -->
<g id="edge13" class="edge">
<title>FooterComponent&#45;&gt;AppModule</title>
<path fill="none" stroke="black" d="M4284,-122.03C4284,-138.4 4284,-160 4284,-160 4284,-160 3329.95,-160 3329.95,-160"/>
<polygon fill="black" stroke="black" points="3329.95,-156.5 3319.95,-160 3329.95,-163.5 3329.95,-156.5"/>
</g>
<!-- FormAreasDeIncumbenciaComponent -->
<g id="node14" class="node">
<title>FormAreasDeIncumbenciaComponent</title>
<polygon fill="#ffffb3" stroke="black" points="4207.43,-122 3974.57,-122 3974.57,-86 4207.43,-86 4207.43,-122"/>
<text text-anchor="middle" x="4091" y="-99.8" font-family="Times,serif" font-size="14.00">FormAreasDeIncumbenciaComponent</text>
</g>
<!-- FormAreasDeIncumbenciaComponent&#45;&gt;AppModule -->
<g id="edge14" class="edge">
<title>FormAreasDeIncumbenciaComponent&#45;&gt;AppModule</title>
<path fill="none" stroke="black" d="M4091,-122.28C4091,-137.95 4091,-158 4091,-158 4091,-158 3329.72,-158 3329.72,-158"/>
<polygon fill="black" stroke="black" points="3329.72,-154.5 3319.72,-158 3329.72,-161.5 3329.72,-154.5"/>
</g>
<!-- FormDatosCvCursoComponent -->
<g id="node15" class="node">
<title>FormDatosCvCursoComponent</title>
<polygon fill="#ffffb3" stroke="black" points="3956.1,-122 3761.9,-122 3761.9,-86 3956.1,-86 3956.1,-122"/>
<text text-anchor="middle" x="3859" y="-99.8" font-family="Times,serif" font-size="14.00">FormDatosCvCursoComponent</text>
</g>
<!-- FormDatosCvCursoComponent&#45;&gt;AppModule -->
<g id="edge15" class="edge">
<title>FormDatosCvCursoComponent&#45;&gt;AppModule</title>
<path fill="none" stroke="black" d="M3859,-122.19C3859,-137.18 3859,-156 3859,-156 3859,-156 3329.78,-156 3329.78,-156"/>
<polygon fill="black" stroke="black" points="3329.78,-152.5 3319.78,-156 3329.78,-159.5 3329.78,-152.5"/>
</g>
<!-- FormDatosCvIdiomaComponent -->
<g id="node16" class="node">
<title>FormDatosCvIdiomaComponent</title>
<polygon fill="#ffffb3" stroke="black" points="3744.32,-122 3543.68,-122 3543.68,-86 3744.32,-86 3744.32,-122"/>
<text text-anchor="middle" x="3644" y="-99.8" font-family="Times,serif" font-size="14.00">FormDatosCvIdiomaComponent</text>
</g>
<!-- FormDatosCvIdiomaComponent&#45;&gt;AppModule -->
<g id="edge16" class="edge">
<title>FormDatosCvIdiomaComponent&#45;&gt;AppModule</title>
<path fill="none" stroke="black" d="M3644,-122.05C3644,-136.37 3644,-154 3644,-154 3644,-154 3329.98,-154 3329.98,-154"/>
<polygon fill="black" stroke="black" points="3329.98,-150.5 3319.98,-154 3329.98,-157.5 3329.98,-150.5"/>
</g>
<!-- FormDatosCvNivelEducativoComponent -->
<g id="node17" class="node">
<title>FormDatosCvNivelEducativoComponent</title>
<polygon fill="#ffffb3" stroke="black" points="3526.03,-122 3277.97,-122 3277.97,-86 3526.03,-86 3526.03,-122"/>
<text text-anchor="middle" x="3402" y="-99.8" font-family="Times,serif" font-size="14.00">FormDatosCvNivelEducativoComponent</text>
</g>
<!-- FormDatosCvNivelEducativoComponent&#45;&gt;AppModule -->
<g id="edge17" class="edge">
<title>FormDatosCvNivelEducativoComponent&#45;&gt;AppModule</title>
<path fill="none" stroke="black" d="M3298.78,-122.11C3298.78,-122.11 3298.78,-140.99 3298.78,-140.99"/>
<polygon fill="black" stroke="black" points="3295.28,-140.99 3298.78,-150.99 3302.28,-140.99 3295.28,-140.99"/>
</g>
<!-- FormDatosDeContactoComponent -->
<g id="node18" class="node">
<title>FormDatosDeContactoComponent</title>
<polygon fill="#ffffb3" stroke="black" points="3259.69,-122 3048.31,-122 3048.31,-86 3259.69,-86 3259.69,-122"/>
<text text-anchor="middle" x="3154" y="-99.8" font-family="Times,serif" font-size="14.00">FormDatosDeContactoComponent</text>
</g>
<!-- FormDatosDeContactoComponent&#45;&gt;AppModule -->
<g id="edge18" class="edge">
<title>FormDatosDeContactoComponent&#45;&gt;AppModule</title>
<path fill="none" stroke="black" d="M3247.88,-122.11C3247.88,-122.11 3247.88,-140.99 3247.88,-140.99"/>
<polygon fill="black" stroke="black" points="3244.38,-140.99 3247.88,-150.99 3251.38,-140.99 3244.38,-140.99"/>
</g>
<!-- FormDatosPersonalesComponent -->
<g id="node19" class="node">
<title>FormDatosPersonalesComponent</title>
<polygon fill="#ffffb3" stroke="black" points="3030.19,-122 2825.81,-122 2825.81,-86 3030.19,-86 3030.19,-122"/>
<text text-anchor="middle" x="2928" y="-99.8" font-family="Times,serif" font-size="14.00">FormDatosPersonalesComponent</text>
</g>
<!-- FormDatosPersonalesComponent&#45;&gt;AppModule -->
<g id="edge19" class="edge">
<title>FormDatosPersonalesComponent&#45;&gt;AppModule</title>
<path fill="none" stroke="black" d="M2928,-122.05C2928,-136.37 2928,-154 2928,-154 2928,-154 3226.13,-154 3226.13,-154"/>
<polygon fill="black" stroke="black" points="3226.13,-157.5 3236.13,-154 3226.13,-150.5 3226.13,-157.5"/>
</g>
<!-- FormExperienciaLaboralComponent -->
<g id="node20" class="node">
<title>FormExperienciaLaboralComponent</title>
<polygon fill="#ffffb3" stroke="black" points="2808.05,-122 2585.95,-122 2585.95,-86 2808.05,-86 2808.05,-122"/>
<text text-anchor="middle" x="2697" y="-99.8" font-family="Times,serif" font-size="14.00">FormExperienciaLaboralComponent</text>
</g>
<!-- FormExperienciaLaboralComponent&#45;&gt;AppModule -->
<g id="edge20" class="edge">
<title>FormExperienciaLaboralComponent&#45;&gt;AppModule</title>
<path fill="none" stroke="black" d="M2697,-122.19C2697,-137.18 2697,-156 2697,-156 2697,-156 3226.22,-156 3226.22,-156"/>
<polygon fill="black" stroke="black" points="3226.22,-159.5 3236.22,-156 3226.22,-152.5 3226.22,-159.5"/>
</g>
<!-- FormInformaticaComponent -->
<g id="node21" class="node">
<title>FormInformaticaComponent</title>
<polygon fill="#ffffb3" stroke="black" points="2567.46,-122 2390.54,-122 2390.54,-86 2567.46,-86 2567.46,-122"/>
<text text-anchor="middle" x="2479" y="-99.8" font-family="Times,serif" font-size="14.00">FormInformaticaComponent</text>
</g>
<!-- FormInformaticaComponent&#45;&gt;AppModule -->
<g id="edge21" class="edge">
<title>FormInformaticaComponent&#45;&gt;AppModule</title>
<path fill="none" stroke="black" d="M2479,-122.28C2479,-137.95 2479,-158 2479,-158 2479,-158 3226.17,-158 3226.17,-158"/>
<polygon fill="black" stroke="black" points="3226.17,-161.5 3236.17,-158 3226.17,-154.5 3226.17,-161.5"/>
</g>
<!-- HeaderComponent -->
<g id="node22" class="node">
<title>HeaderComponent</title>
<polygon fill="#ffffb3" stroke="black" points="2372.74,-122 2251.26,-122 2251.26,-86 2372.74,-86 2372.74,-122"/>
<text text-anchor="middle" x="2312" y="-99.8" font-family="Times,serif" font-size="14.00">HeaderComponent</text>
</g>
<!-- HeaderComponent&#45;&gt;AppModule -->
<g id="edge22" class="edge">
<title>HeaderComponent&#45;&gt;AppModule</title>
<path fill="none" stroke="black" d="M2312,-122.03C2312,-138.4 2312,-160 2312,-160 2312,-160 3226.18,-160 3226.18,-160"/>
<polygon fill="black" stroke="black" points="3226.18,-163.5 3236.18,-160 3226.18,-156.5 3226.18,-163.5"/>
</g>
<!-- LayoutFlowFormComponent -->
<g id="node23" class="node">
<title>LayoutFlowFormComponent</title>
<polygon fill="#ffffb3" stroke="black" points="2233.1,-122 2052.9,-122 2052.9,-86 2233.1,-86 2233.1,-122"/>
<text text-anchor="middle" x="2143" y="-99.8" font-family="Times,serif" font-size="14.00">LayoutFlowFormComponent</text>
</g>
<!-- LayoutFlowFormComponent&#45;&gt;AppModule -->
<g id="edge23" class="edge">
<title>LayoutFlowFormComponent&#45;&gt;AppModule</title>
<path fill="none" stroke="black" d="M2143,-122.03C2143,-139.06 2143,-162 2143,-162 2143,-162 3226.26,-162 3226.26,-162"/>
<polygon fill="black" stroke="black" points="3226.26,-165.5 3236.26,-162 3226.26,-158.5 3226.26,-165.5"/>
</g>
<!-- LayoutFlowFormCvComponent -->
<g id="node24" class="node">
<title>LayoutFlowFormCvComponent</title>
<polygon fill="#ffffb3" stroke="black" points="2035.44,-122 1838.56,-122 1838.56,-86 2035.44,-86 2035.44,-122"/>
<text text-anchor="middle" x="1937" y="-99.8" font-family="Times,serif" font-size="14.00">LayoutFlowFormCvComponent</text>
</g>
<!-- LayoutFlowFormCvComponent&#45;&gt;AppModule -->
<g id="edge24" class="edge">
<title>LayoutFlowFormCvComponent&#45;&gt;AppModule</title>
<path fill="none" stroke="black" d="M1937,-122C1937,-139.68 1937,-164 1937,-164 1937,-164 3226.02,-164 3226.02,-164"/>
<polygon fill="black" stroke="black" points="3226.02,-167.5 3236.02,-164 3226.02,-160.5 3226.02,-167.5"/>
</g>
<!-- LoaderComponent -->
<g id="node25" class="node">
<title>LoaderComponent</title>
<polygon fill="#ffffb3" stroke="black" points="1820.47,-122 1699.53,-122 1699.53,-86 1820.47,-86 1820.47,-122"/>
<text text-anchor="middle" x="1760" y="-99.8" font-family="Times,serif" font-size="14.00">LoaderComponent</text>
</g>
<!-- LoaderComponent&#45;&gt;AppModule -->
<g id="edge25" class="edge">
<title>LoaderComponent&#45;&gt;AppModule</title>
<path fill="none" stroke="black" d="M1760,-122.27C1760,-140.56 1760,-166 1760,-166 1760,-166 3226.21,-166 3226.21,-166"/>
<polygon fill="black" stroke="black" points="3226.21,-169.5 3236.21,-166 3226.21,-162.5 3226.21,-169.5"/>
</g>
<!-- MensajeErrorFetchComponent -->
<g id="node26" class="node">
<title>MensajeErrorFetchComponent</title>
<polygon fill="#ffffb3" stroke="black" points="1681.89,-122 1492.11,-122 1492.11,-86 1681.89,-86 1681.89,-122"/>
<text text-anchor="middle" x="1587" y="-99.8" font-family="Times,serif" font-size="14.00">MensajeErrorFetchComponent</text>
</g>
<!-- MensajeErrorFetchComponent&#45;&gt;AppModule -->
<g id="edge26" class="edge">
<title>MensajeErrorFetchComponent&#45;&gt;AppModule</title>
<path fill="none" stroke="black" d="M1587,-122.17C1587,-141.09 1587,-168 1587,-168 1587,-168 3226.2,-168 3226.2,-168"/>
<polygon fill="black" stroke="black" points="3226.2,-171.5 3236.2,-168 3226.2,-164.5 3226.2,-171.5"/>
</g>
<!-- PrincipalComponent -->
<g id="node27" class="node">
<title>PrincipalComponent</title>
<polygon fill="#ffffb3" stroke="black" points="1473.88,-122 1342.12,-122 1342.12,-86 1473.88,-86 1473.88,-122"/>
<text text-anchor="middle" x="1408" y="-99.8" font-family="Times,serif" font-size="14.00">PrincipalComponent</text>
</g>
<!-- PrincipalComponent&#45;&gt;AppModule -->
<g id="edge27" class="edge">
<title>PrincipalComponent&#45;&gt;AppModule</title>
<path fill="none" stroke="black" d="M1408,-122.31C1408,-142.15 1408,-171 1408,-171 1408,-171 3226.32,-171 3226.32,-171"/>
<polygon fill="black" stroke="black" points="3226.32,-174.5 3236.32,-171 3226.32,-167.5 3226.32,-174.5"/>
</g>
<!-- ProgressBarFormComponent -->
<g id="node28" class="node">
<title>ProgressBarFormComponent</title>
<polygon fill="#ffffb3" stroke="black" points="1324.09,-122 1143.91,-122 1143.91,-86 1324.09,-86 1324.09,-122"/>
<text text-anchor="middle" x="1234" y="-99.8" font-family="Times,serif" font-size="14.00">ProgressBarFormComponent</text>
</g>
<!-- ProgressBarFormComponent&#45;&gt;AppModule -->
<g id="edge28" class="edge">
<title>ProgressBarFormComponent&#45;&gt;AppModule</title>
<path fill="none" stroke="black" d="M1234,-122.13C1234,-142.57 1234,-173 1234,-173 1234,-173 3226.24,-173 3226.24,-173"/>
<polygon fill="black" stroke="black" points="3226.24,-176.5 3236.24,-173 3226.24,-169.5 3226.24,-176.5"/>
</g>
<!-- ResumenComponent -->
<g id="node29" class="node">
<title>ResumenComponent</title>
<polygon fill="#ffffb3" stroke="black" points="1125.93,-122 992.07,-122 992.07,-86 1125.93,-86 1125.93,-122"/>
<text text-anchor="middle" x="1059" y="-99.8" font-family="Times,serif" font-size="14.00">ResumenComponent</text>
</g>
<!-- ResumenComponent&#45;&gt;AppModule -->
<g id="edge29" class="edge">
<title>ResumenComponent&#45;&gt;AppModule</title>
<path fill="none" stroke="black" d="M1059,-122.28C1059,-143.32 1059,-175 1059,-175 1059,-175 3226.14,-175 3226.14,-175"/>
<polygon fill="black" stroke="black" points="3226.14,-178.5 3236.14,-175 3226.14,-171.5 3226.14,-178.5"/>
</g>
<!-- ScreenFinCargaCvComponent -->
<g id="node30" class="node">
<title>ScreenFinCargaCvComponent</title>
<polygon fill="#ffffb3" stroke="black" points="973.86,-122 786.14,-122 786.14,-86 973.86,-86 973.86,-122"/>
<text text-anchor="middle" x="880" y="-99.8" font-family="Times,serif" font-size="14.00">ScreenFinCargaCvComponent</text>
</g>
<!-- ScreenFinCargaCvComponent&#45;&gt;AppModule -->
<g id="edge30" class="edge">
<title>ScreenFinCargaCvComponent&#45;&gt;AppModule</title>
<path fill="none" stroke="black" d="M880,-122.04C880,-143.66 880,-177 880,-177 880,-177 3226.12,-177 3226.12,-177"/>
<polygon fill="black" stroke="black" points="3226.12,-180.5 3236.12,-177 3226.12,-173.5 3226.12,-180.5"/>
</g>
<!-- ScreenFinDeCargaComponent -->
<g id="node31" class="node">
<title>ScreenFinDeCargaComponent</title>
<polygon fill="#ffffb3" stroke="black" points="767.84,-122 580.16,-122 580.16,-86 767.84,-86 767.84,-122"/>
<text text-anchor="middle" x="674" y="-99.8" font-family="Times,serif" font-size="14.00">ScreenFinDeCargaComponent</text>
</g>
<!-- ScreenFinDeCargaComponent&#45;&gt;AppModule -->
<g id="edge31" class="edge">
<title>ScreenFinDeCargaComponent&#45;&gt;AppModule</title>
<path fill="none" stroke="black" d="M674,-122.16C674,-144.35 674,-179 674,-179 674,-179 3226.31,-179 3226.31,-179"/>
<polygon fill="black" stroke="black" points="3226.31,-182.5 3236.31,-179 3226.31,-175.5 3226.31,-182.5"/>
</g>
<!-- SelectAutocompleteComponent -->
<g id="node32" class="node">
<title>SelectAutocompleteComponent</title>
<polygon fill="#ffffb3" stroke="black" points="562.35,-122 367.65,-122 367.65,-86 562.35,-86 562.35,-122"/>
<text text-anchor="middle" x="465" y="-99.8" font-family="Times,serif" font-size="14.00">SelectAutocompleteComponent</text>
</g>
<!-- SelectAutocompleteComponent&#45;&gt;AppModule -->
<g id="edge32" class="edge">
<title>SelectAutocompleteComponent&#45;&gt;AppModule</title>
<path fill="none" stroke="black" d="M465,-122.25C465,-145.02 465,-181 465,-181 465,-181 3226.33,-181 3226.33,-181"/>
<polygon fill="black" stroke="black" points="3226.33,-184.5 3236.33,-181 3226.33,-177.5 3226.33,-184.5"/>
</g>
<!-- SubirArchivoCvComponent -->
<g id="node33" class="node">
<title>SubirArchivoCvComponent</title>
<polygon fill="#ffffb3" stroke="black" points="349.88,-122 176.12,-122 176.12,-86 349.88,-86 349.88,-122"/>
<text text-anchor="middle" x="263" y="-99.8" font-family="Times,serif" font-size="14.00">SubirArchivoCvComponent</text>
</g>
<!-- SubirArchivoCvComponent&#45;&gt;AppModule -->
<g id="edge33" class="edge">
<title>SubirArchivoCvComponent&#45;&gt;AppModule</title>
<path fill="none" stroke="black" d="M263,-122.32C263,-145.66 263,-183 263,-183 263,-183 3226.24,-183 3226.24,-183"/>
<polygon fill="black" stroke="black" points="3226.24,-186.5 3236.24,-183 3226.24,-179.5 3226.24,-186.5"/>
</g>
<!-- AppComponent  -->
<g id="node36" class="node">
<title>AppComponent </title>
<polygon fill="#80b1d3" stroke="black" points="3332.44,-252 3223.56,-252 3223.56,-216 3332.44,-216 3332.44,-252"/>
<text text-anchor="middle" x="3278" y="-229.8" font-family="Times,serif" font-size="14.00">AppComponent </text>
</g>
<!-- AppModule&#45;&gt;AppComponent  -->
<g id="edge35" class="edge">
<title>AppModule&#45;&gt;AppComponent </title>
<path fill="none" stroke="black" stroke-dasharray="1,5" d="M3278,-187.11C3278,-187.11 3278,-205.99 3278,-205.99"/>
<polygon fill="black" stroke="black" points="3274.5,-205.99 3278,-215.99 3281.5,-205.99 3274.5,-205.99"/>
</g>
<!-- AppRoutingModule -->
<g id="node35" class="node">
<title>AppRoutingModule</title>
<polygon fill="#8dd3c7" stroke="black" points="152.27,-122 149.27,-126 128.27,-126 125.27,-122 23.73,-122 23.73,-86 152.27,-86 152.27,-122"/>
<text text-anchor="middle" x="88" y="-99.8" font-family="Times,serif" font-size="14.00">AppRoutingModule</text>
</g>
<!-- AppRoutingModule&#45;&gt;AppModule -->
<g id="edge34" class="edge">
<title>AppRoutingModule&#45;&gt;AppModule</title>
<path fill="none" stroke="black" d="M88,-122.38C88,-146.28 88,-185 88,-185 88,-185 3226.21,-185 3226.21,-185"/>
<polygon fill="black" stroke="black" points="3226.21,-188.5 3236.21,-185 3226.21,-181.5 3226.21,-188.5"/>
</g>
</g>
</svg>
